PathFileType	3	(X/Y/Z)	D:\minhoCalibration\240510\subject1_KPNP\preferred\preferred17.trc
DataRate	CameraRate	NumFrames	NumMarkers	Units	OrigDataRate	OrigDataStartFrame	OrigNumFrames
200.0	200.0	15	10	mm	200.0	457	190	
Frame#	Time	Left_Ankle_Outer1			Left_Ankle_Inner1			Left_Knee_Outer1			Left_Knee_Inner1			Left_Wrist1			Right_Wrist1			Right_Knee_Inner1			Right_Knee_Outer1			Right_Ankle_Inner1			Right_Ankle_Outer1			
		X1	Y1	Z1	X2	Y2	Z2	X3	Y3	Z3	X4	Y4	Z4	X5	Y5	Z5	X6	Y6	Z6	X7	Y7	Z7	X8	Y8	Z8	X9	Y9	Z9	X10	Y10	Z10	
457	2.275	-502.46017	145.86113	-552.69598	-549.88159	154.01909	-523.47974	-379.43973	559.34711	-398.10605	-484.77927	535.28931	-370.44247	-391.72919	1013.1687	-574.89087	-705.12921	1106.1093	-408.74118	-444.86386	807.87988	-109.0388	-549.13312	843.90155	-71.757935	-621.34442	395.98938	-17.964958	-666.67444	417.70163	94.108131
458	2.28	-503.32446	144.92224	-553.14001	-550.73901	153.16713	-523.67993	-379.18561	557.47644	-397.25589	-484.49454	533.81689	-368.99121	-391.00977	1011.501	-572.91492	-706.013	1101.1754	-409.50998	-451.83249	797.61798	-109.20239	-557.4046	832.42285	-74.122467	-630.16229	383.35825	-36.471775	-678.85876	401.40881	75.955154
459	2.285	-504.18634	144.07912	-553.51703	-551.5274	152.26311	-524.30371	-378.57431	555.74884	-396.34525	-483.8176	531.98218	-368.10782	-390.02185	1009.8114	-571.1604	-706.86963	1096.1831	-410.37341	-459.09924	787.14758	-109.52695	-565.82843	820.50378	-76.973183	-638.61395	370.91464	-55.173428	-690.56592	385.60046	57.789398
460	2.29	-504.78577	143.11935	-553.95325	-552.23083	151.40625	-524.80188	-377.94	553.99518	-395.29483	-483.06091	530.41046	-367.09561	-388.98495	1008.0146	-569.50281	-707.40479	1091.2273	-411.30554	-466.55017	776.40131	-110.2303	-574.42212	808.56476	-80.063652	-646.75854	359.04745	-73.754013	-701.7074	370.29822	40.04327
461	2.295	-505.19693	142.17566	-554.5163	-552.67969	150.43008	-525.28442	-377.6633	552.14001	-394.05389	-482.914	528.76343	-365.77948	-388.06906	1006.1563	-567.84088	-707.79187	1086.4011	-412.18011	-474.26718	765.42328	-111.34856	-582.9704	796.49176	-83.569061	-654.44586	347.82016	-91.961678	-713.01794	354.78659	19.18434
462	2.3	-505.39191	141.17728	-555.19794	-552.92657	149.367	-525.87573	-377.30185	550.26849	-392.73779	-482.2583	527.15283	-364.90271	-387.11621	1004.2887	-566.31342	-707.89941	1081.5358	-413.09671	-482.08997	754.14038	-113.15582	-591.45599	784.3974	-87.693161	-663.59869	336.3494	-109.97443	-723.7348	340.01852	-0.62731332
463	2.305	-505.3544	140.01093	-555.88367	-552.96802	148.27219	-526.69543	-376.66821	548.57336	-391.32449	-482.01233	525.39606	-363.45776	-386.20187	1002.4086	-564.73413	-707.82324	1076.8282	-413.97507	-489.93091	742.66333	-115.77582	-599.7359	772.33264	-92.431015	-671.58618	324.59628	-128.48141	-733.96082	325.7623	-20.189568
464	2.31	-505.07236	138.69019	-556.70105	-552.72687	146.9323	-527.43268	-376.67191	546.58948	-390.00461	-481.55157	523.75159	-363.01999	-385.57159	1000.4141	-563.10425	-707.68689	1072.2257	-414.84509	-497.715	731.00525	-119.26416	-607.797	760.42798	-97.760719	-678.20215	314.33084	-147.1118	-743.62366	312.11438	-39.434078
465	2.315	-504.4537	137.23839	-557.58466	-552.25397	145.46133	-528.52441	-376.58942	544.73065	-388.58722	-481.64221	521.76575	-362.12671	-384.80511	998.51831	-561.49249	-707.5274	1067.6832	-415.67932	-505.31693	719.26678	-123.49957	-615.6402	749.01251	-103.41805	-685.73047	304.00943	-164.45512	-752.91742	299.03467	-58.343124
466	2.32	-503.59064	135.45993	-558.67316	-551.41119	143.8083	-529.6059	-376.71948	542.5553	-387.33679	-482.09921	519.82458	-361.23074	-383.99603	996.70728	-559.7948	-707.38062	1063.2363	-416.62009	-512.8598	707.40204	-128.7345	-623.16949	737.19531	-110.18768	-693.60907	294.63782	-181.37091	-761.76855	286.41281	-77.012405
467	2.325	-502.64859	133.68523	-559.80243	-550.7785	142.2065	-531.17737	-376.6962	540.50751	-386.12839	-481.63925	517.75183	-360.47824	-383.10367	994.88263	-558.04578	-707.39331	1058.9229	-417.54855	-520.32568	695.51489	-134.75861	-630.57843	725.82111	-117.11674	-699.36835	284.10693	-200.88026	-770.32153	274.23993	-95.312126
468	2.33	-501.66309	131.79622	-560.92487	-550.10223	140.48125	-532.83514	-376.97684	538.35516	-384.97189	-482.22745	515.19177	-360.43774	-382.14017	993.1062	-556.26672	-707.56885	1054.7699	-418.5488	-527.71973	683.61432	-141.71474	-637.74432	714.55603	-124.53251	-706.02448	274.6402	-217.37152	-778.6618	262.51959	-113.23295
469	2.335	-500.73148	129.88725	-561.992	-549.50751	138.67209	-534.47345	-377.37177	536.04047	-383.89117	-483.27026	512.55164	-360.53598	-381.26913	991.36731	-554.33063	-708.1441	1050.9982	-419.03497	-534.86572	671.86414	-148.92911	-644.72833	703.36517	-132.32959	-712.70917	265.30005	-234.27896	-786.62714	251.14468	-130.88284
470	2.34	-499.901	127.93581	-562.95551	-549.0318	136.98724	-536.01855	-377.73431	533.68469	-382.84601	-484.17386	510.10156	-360.86252	-380.35095	989.60797	-552.3363	-708.08411	1046.6433	-422.09558	-541.91089	660.24146	-156.67415	-651.53101	692.27936	-140.4424	-719.0506	256.12933	-251.07359	-794.30145	240.13043	-148.00612
471	2.345	-499.32614	126.09827	-563.80847	-548.68579	135.29651	-537.59308	-378.31567	531.33856	-381.55676	-485.71194	507.41516	-361.37894	-379.46213	987.91406	-550.27423	-708.15125	1042.6243	-424.84415	-548.75189	648.88568	-164.99678	-658.17474	681.26874	-148.91298	-725.35126	246.53348	-268.52454	-801.71277	229.37054	-164.87135
